<svg width="11" height="10" viewBox="0 0 11 10" fill="none" xmlns="http://www.w3.org/2000/svg">
<path d="M0.141014 0.834226C-0.0470045 0.64673 -0.0470045 0.334674 0.141014 0.140622C0.335606 -0.046874 0.641957 -0.046874 0.836549 0.140622L5.0102 4.30967L9.19087 0.140622C9.37888 -0.046874 9.69181 -0.046874 9.87939 0.140622C10.074 0.334674 10.074 0.647167 9.87939 0.834226L5.70574 4.99672L9.87939 9.16577C10.074 9.35327 10.074 9.66533 9.87939 9.85938C9.69137 10.0469 9.37845 10.0469 9.19087 9.85938L5.0102 5.69033L0.836549 9.85938C0.641957 10.0469 0.335606 10.0469 0.141014 9.85938C-0.0470045 9.66533 -0.0470045 9.35283 0.141014 9.16577L4.31467 4.99672L0.141014 0.834226Z" fill="#2C323F"/>
</svg>
